# xmcd
#
# Track frame offsets:
#	150
#	15141
#	33804
#	49833
#	79311
#	101301
#	125086
#	142680
#	163860
#	178932
#	192532
#	212290
#	233571
#	252780
#	266797
#	282661
#	294717
#
# Disc length: 4194 seconds
#
# Revision: 0
# Processed by: cddbd v1.5.1PL0 Copyright (c) Steve Scherf et al.
# Submitted via: dBpowerAMP V4.0
#
DISCID=ef106011
DTITLE=msgno - gjjghjbnb
DYEAR=1900
DGENRE=Blues
TTITLE0=hfj
TTITLE1=nfnfh
TTITLE2=hjfj
TTITLE3=ffgdxgg
TTITLE4=fzgzdf
TTITLE5=gdfg
TTITLE6=sadf
TTITLE7=gfdgxdhg
TTITLE8=hfghfgxh
TTITLE9=hfghfj
TTITLE10=gbfnfn
TTITLE11=gfxgnghm
TTITLE12=jh
TTITLE13=hv
TTITLE14=gxc
TTITLE15=nm
TTITLE16=jbvnmv
EXTD=Dillic\nnhnui
EXTT0=
EXTT1=
EXTT2=
EXTT3=
EXTT4=
EXTT5=
EXTT6=
EXTT7=
EXTT8=
EXTT9=
EXTT10=
EXTT11=
EXTT12=
EXTT13=
EXTT14=
EXTT15=
EXTT16=
PLAYORDER=
